<svg xmlns="http://www.w3.org/2000/svg" viewBox="0 0 247.16 151.35"><defs><style>.cls-1{fill:#fff;}</style></defs><g id="Capa_2" data-name="Capa 2"><g id="Capa_1-2" data-name="Capa 1"><path class="cls-1" d="M0,144.4v-36a7.66,7.66,0,0,1,7.67-7.67h21a6.06,6.06,0,0,1,6.06,6.06h0a6.06,6.06,0,0,1-6.06,6.06H13.9v8.41H25.24a5.63,5.63,0,0,1,5.63,5.63h0a5.63,5.63,0,0,1-5.63,5.64H13.9V144.4A7,7,0,0,1,7,151.35H7A7,7,0,0,1,0,144.4Z"/><path class="cls-1" d="M59.52,100.73h0a10.65,10.65,0,0,1,10.14,7.41l11,34.6a6.6,6.6,0,0,1-6.29,8.61h0A6.61,6.61,0,0,1,68,146.43l-1.31-5H52.38l-1.32,5a6.61,6.61,0,0,1-6.39,4.92h-.05a6.61,6.61,0,0,1-6.29-8.62l11.06-34.6A10.64,10.64,0,0,1,59.52,100.73Zm4.71,31.44-4.7-17.82-4.71,17.82Z"/><path class="cls-1" d="M90.82,144.74v-37.4a6.61,6.61,0,0,1,6.61-6.61h16.63a15.72,15.72,0,0,1,6.85,1.5,17.14,17.14,0,0,1,5.41,4,18.63,18.63,0,0,1,3.53,5.66,17.13,17.13,0,0,1,1.25,6.35,18.55,18.55,0,0,1-.85,5.63,17.18,17.18,0,0,1-6.42,8.84l5,8.7a6.62,6.62,0,0,1-5.73,9.91h0a6.62,6.62,0,0,1-5.74-3.33l-7-12.21h-5.64v8.93a6.61,6.61,0,0,1-6.61,6.61h-.68A6.61,6.61,0,0,1,90.82,144.74Zm13.9-21.05h8.77a2.6,2.6,0,0,0,1.64-.64,5,5,0,0,0,1.32-1.86,7.15,7.15,0,0,0,.54-2.92,6.47,6.47,0,0,0-.61-3,5,5,0,0,0-1.5-1.82,3,3,0,0,0-1.74-.64h-8.42Z"/><path class="cls-1" d="M180.43,144.4V124.68l-7,15.38a5.75,5.75,0,0,1-5.24,3.37h0a5.74,5.74,0,0,1-5.23-3.37l-7-15.38V144.4a7,7,0,0,1-7,6.95h0a7,7,0,0,1-6.95-6.95V107.68a7,7,0,0,1,6.95-7h3.77a7,7,0,0,1,6.32,4.06l9.05,19.75,9.12-19.77a7,7,0,0,1,6.31-4h3.71a7,7,0,0,1,7,7V144.4a7,7,0,0,1-7,6.95h0A7,7,0,0,1,180.43,144.4Z"/><path class="cls-1" d="M225.69,100.73h0a10.64,10.64,0,0,1,10.14,7.41l11,34.6a6.6,6.6,0,0,1-6.29,8.61h0a6.59,6.59,0,0,1-6.38-4.92l-1.32-5h-14.3l-1.32,5a6.59,6.59,0,0,1-6.38,4.92h-.06a6.61,6.61,0,0,1-6.29-8.62l11.06-34.6A10.64,10.64,0,0,1,225.69,100.73Zm4.71,31.44-4.7-17.82L221,132.17Z"/><path class="cls-1" d="M132.75.21a9.06,9.06,0,0,0-8.6,6,.43.43,0,0,1-.8,0C121.79,2.55,118.52,0,114.71,0c-3.35,0-6.69,2.52-8.45,5.72-2.26,4.12-1.15,8.14,1.54,11.59,4,5.11,8,10.15,12.06,15.22a4.44,4.44,0,0,0,7,0c4.13-5.12,10.79-12.78,11.66-13.82,2.8-3.32,5.16-7.2,3.32-11.83A10.06,10.06,0,0,0,132.75.21Zm-9,14.56c-.06-.17-.1-.32-.15-.49h.28C123.83,14.45,123.79,14.6,123.74,14.77Z"/><path class="cls-1" d="M123.87,14.28c0,.17-.08.32-.13.49-.06-.17-.1-.32-.15-.49Z"/><path class="cls-1" d="M123.87,14.28c0,.17-.08.32-.13.49-.06-.17-.1-.32-.15-.49Z"/><polygon class="cls-1" points="105.57 14.28 111 21.19 105.55 14.28 105.57 14.28"/><path class="cls-1" d="M123.87,14.28c0,.17-.08.32-.13.49-.06-.17-.1-.32-.15-.49Z"/><path class="cls-1" d="M82.65,31.33a9.07,9.07,0,0,0,6,8.61.43.43,0,0,1,0,.8c-3.68,1.56-6.23,4.82-6.23,8.63,0,3.36,2.52,6.69,5.72,8.45,4.12,2.27,8.14,1.15,11.59-1.53,5.11-4,10.15-8,15.22-12.06a4.45,4.45,0,0,0,0-7c-5.12-4.13-12.78-10.79-13.82-11.66-3.32-2.79-7.2-5.16-11.83-3.31A10,10,0,0,0,82.65,31.33Zm14.57,9c-.18.06-.33.11-.5.15v-.28Z"/><path class="cls-1" d="M96.72,40.21l.5.13c-.18.06-.33.11-.5.15Z"/><path class="cls-1" d="M96.72,40.21l.5.13c-.18.06-.33.11-.5.15Z"/><polygon class="cls-1" points="96.72 58.51 103.63 53.09 96.72 58.53 96.72 58.51"/><path class="cls-1" d="M96.72,40.21l.5.13c-.18.06-.33.11-.5.15Z"/><path class="cls-1" d="M164.51,49.35a9.06,9.06,0,0,0-6-8.6.44.44,0,0,1,0-.81c3.68-1.56,6.23-4.82,6.23-8.63,0-3.36-2.52-6.69-5.72-8.45-4.12-2.26-8.14-1.15-11.59,1.53-5.11,4-10.15,8-15.22,12.06a4.46,4.46,0,0,0-.05,7c5.13,4.13,12.79,10.79,13.82,11.66,3.33,2.8,7.21,5.16,11.84,3.31A10,10,0,0,0,164.51,49.35Zm-14.57-9c.18-.06.33-.11.5-.15v.28Z"/><path class="cls-1" d="M150.44,40.47l-.5-.13c.18-.06.33-.11.5-.15Z"/><path class="cls-1" d="M150.44,40.47l-.5-.13c.18-.06.33-.11.5-.15Z"/><polygon class="cls-1" points="150.44 22.17 143.53 27.59 150.44 22.15 150.44 22.17"/><path class="cls-1" d="M150.44,40.47l-.5-.13c.18-.06.33-.11.5-.15Z"/><path class="cls-1" d="M114.74,80.81a9.08,9.08,0,0,0,8.6-6,.43.43,0,0,1,.8,0C125.7,78.46,129,81,132.77,81c3.36,0,6.69-2.51,8.45-5.71,2.27-4.12,1.15-8.14-1.53-11.59-4-5.11-8-10.15-12.06-15.22a4.43,4.43,0,0,0-6.95-.05c-4.13,5.13-10.8,12.79-11.67,13.82-2.79,3.33-5.16,7.2-3.31,11.84A10.07,10.07,0,0,0,114.74,80.81Zm9-14.57a3.17,3.17,0,0,1,.15.5h-.28C123.66,66.56,123.7,66.42,123.74,66.24Z"/><path class="cls-1" d="M123.61,66.74c0-.18.09-.32.13-.5a3.17,3.17,0,0,1,.15.5Z"/><path class="cls-1" d="M123.61,66.74c0-.18.09-.32.13-.5a3.17,3.17,0,0,1,.15.5Z"/><polygon class="cls-1" points="141.91 66.74 136.49 59.82 141.94 66.74 141.91 66.74"/><path class="cls-1" d="M123.61,66.74c0-.18.09-.32.13-.5a3.17,3.17,0,0,1,.15.5Z"/></g></g></svg>